<svg xmlns="http://www.w3.org/2000/svg" viewBox="0 0 64 64" role="img" aria-label="Advanced table favicon">
  <defs>
    <linearGradient id="bg" x1="10" x2="54" y1="8" y2="58" gradientUnits="userSpaceOnUse">
      <stop stop-color="#0F766E" />
      <stop offset="1" stop-color="#2563EB" />
    </linearGradient>
    <linearGradient id="cell" x1="18" x2="46" y1="20" y2="45" gradientUnits="userSpaceOnUse">
      <stop stop-color="#FFFFFF" />
      <stop offset="1" stop-color="#DFF7F4" />
    </linearGradient>
  </defs>
  <rect width="64" height="64" rx="14" fill="url(#bg)" />
  <path fill="#073B4C" fill-opacity=".2" d="M14 21a7 7 0 0 1 7-7h27a7 7 0 0 1 7 7v27a7 7 0 0 1-7 7H21a7 7 0 0 1-7-7V21Z" />
  <rect x="12" y="11" width="40" height="40" rx="7" fill="#F8FAFC" />
  <path fill="#0F766E" d="M12 18a7 7 0 0 1 7-7h26a7 7 0 0 1 7 7v6H12v-6Z" />
  <path stroke="#CBD5E1" stroke-width="2" d="M13 34h38M13 43h38M25 24v27M38 24v27" />
  <path fill="url(#cell)" d="M17 29h6v4h-6v-4Zm11 0h8v4h-8v-4Zm13 0h6v4h-6v-4Zm-24 9h6v4h-6v-4Zm11 0h8v4h-8v-4Zm13 0h6v4h-6v-4Z" />
  <path fill="#FBBF24" d="M43 14 49 14 46 19Z" />
  <path fill="#FFFFFF" d="M18 17.5a2.5 2.5 0 1 0 0 .01v-.01Zm8 0a2.5 2.5 0 1 0 0 .01v-.01Z" />
  <path fill="#0B1120" fill-opacity=".12" d="M52 27v17.5a7.5 7.5 0 0 1-7.5 7.5H27l25-25Z" />
</svg>
